<svg version="1.1" xmlns="http://www.w3.org/2000/svg" xmlns:xlink="http://www.w3.org/1999/xlink" width="63" height="44.54773" viewBox="0,0,63,44.54773"><g transform="translate(-205.03516,-329.88672)"><g data-paper-data="{&quot;isPaintingLayer&quot;:true}" fill-rule="nonzero" stroke="none" stroke-width="0" stroke-linecap="butt" stroke-linejoin="miter" stroke-miterlimit="10" stroke-dasharray="" stroke-dashoffset="0" style="mix-blend-mode: normal"><path d="M205.03516,361.38672c0,-17.39697 14.10303,-31.5 31.5,-31.5c17.39697,0 31.5,14.10303 31.5,31.5c0,17.39697 -63,17.39697 -63,0z" fill="#343434"/><g data-paper-data="{&quot;origPos&quot;:null}" fill="#c0c2c8"><g data-paper-data="{&quot;origPos&quot;:null}"><g data-paper-data="{&quot;origPos&quot;:null}"><path d="M219.59851,341.093v-4.12132h4.12132v4.12132z" data-paper-data="{&quot;origPos&quot;:null}"/><path d="M225.23821,341.093v-4.12132h4.12132v4.12132z" data-paper-data="{&quot;origPos&quot;:null}"/></g><g data-paper-data="{&quot;origPos&quot;:null}"><path d="M231.09483,341.093v-4.12132h4.12132v4.12132z" data-paper-data="{&quot;origPos&quot;:null}"/><path d="M236.73454,341.093v-4.12132h4.12132v4.12132z" data-paper-data="{&quot;origPos&quot;:null}"/></g><g data-paper-data="{&quot;origPos&quot;:null}"><path d="M242.59115,341.093v-4.12132h4.12132v4.12132z" data-paper-data="{&quot;origPos&quot;:null}"/><path d="M248.23086,341.093v-4.12132h4.12132v4.12132z" data-paper-data="{&quot;origPos&quot;:null}"/></g></g><g data-paper-data="{&quot;origPos&quot;:null}"><g data-paper-data="{&quot;origPos&quot;:null}"><g data-paper-data="{&quot;origPos&quot;:null}"><path d="M236.95145,346.5158v-4.12132h4.12132v4.12132z" data-paper-data="{&quot;origPos&quot;:null}"/><path d="M242.59115,346.5158v-4.12132h4.12132v4.12132z" data-paper-data="{&quot;origPos&quot;:null}"/></g><g data-paper-data="{&quot;origPos&quot;:null}"><path d="M248.44777,346.5158v-4.12132h4.12132v4.12132z" data-paper-data="{&quot;origPos&quot;:null}"/><path d="M254.08748,346.5158v-4.12132h4.12132v4.12132z" data-paper-data="{&quot;origPos&quot;:null}"/></g></g><g data-paper-data="{&quot;origPos&quot;:null}"><path d="M214.17571,346.5158v-4.12132h4.12132v4.12132z" data-paper-data="{&quot;origPos&quot;:null}"/><path d="M219.81542,346.5158v-4.12132h4.12132v4.12132z" data-paper-data="{&quot;origPos&quot;:null}"/></g><g data-paper-data="{&quot;origPos&quot;:null}"><path d="M225.67204,346.5158v-4.12132h4.12132v4.12132z" data-paper-data="{&quot;origPos&quot;:null}"/><path d="M231.31174,346.5158v-4.12132h4.12132v4.12132z" data-paper-data="{&quot;origPos&quot;:null}"/></g></g><g data-paper-data="{&quot;origPos&quot;:null}"><g data-paper-data="{&quot;origPos&quot;:null}"><g data-paper-data="{&quot;origPos&quot;:null}"><path d="M236.73454,351.93859v-4.12132h4.12132v4.12132z" data-paper-data="{&quot;origPos&quot;:null}"/><path d="M242.37424,351.93859v-4.12132h4.12132v4.12132z" data-paper-data="{&quot;origPos&quot;:null}"/></g><g data-paper-data="{&quot;origPos&quot;:null}"><path d="M248.23086,351.93859v-4.12132h4.12132v4.12132z" data-paper-data="{&quot;origPos&quot;:null}"/><path d="M253.87056,351.93859v-4.12132h4.12132v4.12132z" data-paper-data="{&quot;origPos&quot;:null}"/></g></g><g data-paper-data="{&quot;origPos&quot;:null}"><path d="M213.9588,351.93859v-4.12132h4.12132v4.12132z" data-paper-data="{&quot;origPos&quot;:null}"/><path d="M219.59851,351.93859v-4.12132h4.12132v4.12132z" data-paper-data="{&quot;origPos&quot;:null}"/></g><g data-paper-data="{&quot;origPos&quot;:null}"><path d="M225.45512,351.93859v-4.12132h4.12132v4.12132z" data-paper-data="{&quot;origPos&quot;:null}"/><path d="M231.09483,351.93859v-4.12132h4.12132v4.12132z" data-paper-data="{&quot;origPos&quot;:null}"/></g></g></g></g></g></svg>