<svg version="1.1" xmlns="http://www.w3.org/2000/svg" xmlns:xlink="http://www.w3.org/1999/xlink" width="834.10364" height="488.75116" viewBox="0,0,834.10364,488.75116"><g transform="translate(183.23731,83.04616)"><g data-paper-data="{&quot;isPaintingLayer&quot;:true}" fill-rule="nonzero" stroke="none" stroke-linecap="butt" stroke-linejoin="miter" stroke-miterlimit="10" stroke-dasharray="" stroke-dashoffset="0" style="mix-blend-mode: normal"><path d="M-129.68192,405.705v-451.41h739.36385v451.41z" fill="#000000" stroke-width="0"/><text transform="translate(5.32577,15.24986) scale(0.20179,0.20179)" font-size="40" xml:space="preserve" fill="#ffffff" fill-rule="nonzero" stroke="none" stroke-width="1" stroke-linecap="butt" stroke-linejoin="miter" stroke-miterlimit="10" stroke-dasharray="" stroke-dashoffset="0" font-family="Sans Serif" font-weight="normal" text-anchor="start" style="mix-blend-mode: normal"><tspan x="0" dy="0">Fo.KeyboardTest</tspan></text><text transform="translate(270.41269,15.70181) scale(0.21279,0.21279)" font-size="40" xml:space="preserve" fill="#ffffff" fill-rule="nonzero" stroke="none" stroke-width="1" stroke-linecap="butt" stroke-linejoin="miter" stroke-miterlimit="10" stroke-dasharray="" stroke-dashoffset="0" font-family="Sans Serif" font-weight="normal" text-anchor="start" style="mix-blend-mode: normal"><tspan x="0" dy="0">Copyright © FluidOS 2020-2025. All right reserved.</tspan></text><path d="M-6.53115,-59.33231v-23.71385h2.54077v23.71385z" fill="#000000" stroke-width="0"/><text transform="translate(408.37961,348.85602) scale(0.20179,0.20179)" font-size="40" xml:space="preserve" fill="#ffffff" fill-rule="nonzero" stroke="none" stroke-width="1" stroke-linecap="butt" stroke-linejoin="miter" stroke-miterlimit="10" stroke-dasharray="" stroke-dashoffset="0" font-family="Sans Serif" font-weight="normal" text-anchor="start" style="mix-blend-mode: normal"><tspan x="0" dy="0">Fo.KeyboardTest</tspan></text><text transform="translate(6.09115,349.30797) scale(0.21279,0.21279)" font-size="40" xml:space="preserve" fill="#ffffff" fill-rule="nonzero" stroke="none" stroke-width="1" stroke-linecap="butt" stroke-linejoin="miter" stroke-miterlimit="10" stroke-dasharray="" stroke-dashoffset="0" font-family="Sans Serif" font-weight="normal" text-anchor="start" style="mix-blend-mode: normal"><tspan x="0" dy="0">Copyright © FluidOS 2020-2025. All right reserved.</tspan></text><path d="M124.03645,32.69807c-3.9996,3.4542 -8.54849,3.27103 -13.54167,3.37116c-12.32631,0.24718 -24.65488,0.42938 -36.97682,0.84038c-13.05396,0.43542 -26.08819,1.4397 -39.14685,1.69803c-14.74496,0.29169 -29.51135,0.00168 -44.23565,0.83463c-9.15014,0.51762 -18.23021,1.93837 -27.30598,3.21247c-1.4596,0.20491 -2.87254,0.58539 -4.2752,0.95184c-1.51319,0.60132 -3.1634,0.93188 -4.89081,0.93188c-0.05754,0 -0.11499,-0.00037 -0.17235,-0.0011c-1.12131,0.04727 -2.26312,-0.05378 -3.44294,-0.39451c-1.49449,-0.43161 -2.75994,-1.08268 -3.84309,-1.90135c-3.03311,-2.06938 -5.16235,-5.36574 -5.67329,-9.17467c-0.64243,-1.95253 -1.16405,-3.96608 -1.70804,-5.88182c-0.3319,-1.16883 -1.23343,-2.33709 -0.95104,-3.51885c0.25325,-1.05982 0.57542,-2.10202 0.85291,-3.15575c0.07835,-0.29755 0.52185,-0.88256 0.21454,-0.89779c-11.87029,-0.58819 -23.83915,2.25125 -35.6021,-0.68949c-8.14218,-2.03554 -8.13896,-12.44828 -6.44792,-18.70514c0.43821,-1.62139 2.88359,-3.28162 4.14068,-4.36728c4.862,-4.199 22.10744,-3.8077 24.03149,-3.90367c25.00471,-1.24713 54.60662,0.04491 80.62099,-1.00121c161.33703,-6.48787 204.84521,-8.64561 389.39722,-17.77705c27.30958,-1.35125 55.08737,-9.11257 81.93477,-3.93023c4.82705,0.93176 7.99647,5.05424 9.44208,9.44208c0.29238,0.88747 0.44522,1.83287 0.44735,2.76726c0.0021,0.91824 -1.3528,2.74146 -0.4348,2.72021c26.9382,-0.6238 53.86368,-1.71108 80.79632,-2.54076c4.40881,-0.13582 10.58797,-0.26585 14.21963,2.87058c1.79744,1.55233 2.36234,3.17265 3.17149,5.35243c0.16232,0.43728 0.24702,1.19226 0.71332,1.20385c10.89741,0.27064 32.04047,-5.78806 31.97971,12.28583c-0.04102,12.20371 -14.04415,14.8594 -23.85136,16.46982c-16.20995,2.66179 -32.27652,6.65186 -48.66601,7.76197c-21.48484,1.45524 -42.99934,2.49411 -64.46466,4.21338c-1.9969,0.15994 -8.60749,2.9545 -11.97345,3.35241c-12.54049,1.4825 -25.06009,3.19389 -37.6418,4.27202c-73.30902,6.28189 -146.62167,11.37358 -220.07139,15.58431c-5.87668,0.3369 -10.69209,0.70515 -16.5497,-0.75925c-1.28877,-0.32219 -2.28899,-2.71677 -3.55342,-2.74681c-4.0439,-0.09607 -8.07771,0.47007 -12.12125,0.58048c-10.71317,0.29252 -22.22357,0.27898 -32.93856,0.06307c-3.02767,-0.06101 -10.009,-2.16743 -11.17464,-5.59993c-0.76193,-2.24367 -1.42062,-4.52249 -2.03678,-6.81049c-0.45861,-1.70296 1.19156,-5.8614 1.51711,-7.46281z" fill="#000000" stroke-width="0.5"/><path d="M-183.23731,103.27692c0,-7.31777 5.93223,-13.25 13.25,-13.25c7.31777,0 13.25,5.93223 13.25,13.25c0,7.31777 -5.93223,13.25 -13.25,13.25c-7.31777,0 -13.25,-5.93223 -13.25,-13.25z" fill="#000000" stroke-width="0.5"/><path d="M61.85317,330.47261c26.88466,-0.7447 53.77421,-1.75966 80.66878,-1.61338c2.33164,0.01268 5.7306,0.42385 7.54053,1.98569c0.58948,0.50868 1.66669,2.77802 2.62313,2.72091c46.02141,-2.74767 91.95995,-6.75556 137.96563,-9.75515c5.30246,-0.34572 8.90238,2.45154 12.51329,5.63981c1.37013,1.20977 2.33794,5.8775 2.59582,5.86605c90.10251,-4.00335 214.99521,-31.09994 281.82605,-41.85799c6.1173,-0.98473 27.55169,-5.02833 33.29355,4.11404c1.40675,2.23988 2.18726,4.92991 2.38741,7.56733c0.15529,2.04623 -1.7994,4.00087 -1.35744,6.00482c0.2029,0.92001 1.85505,0.33151 2.78632,0.47406c1.98255,0.30347 4.0249,0.88108 5.65921,2.04366c4.62112,3.28727 2.72739,6.31767 5.27037,8.52494c0.4209,0.36534 1.11566,-0.14559 1.66981,-0.08602c2.16049,0.23226 4.28028,0.75385 6.41266,1.17171c0.81499,0.15971 4.45192,3.27792 4.83861,3.57858c1.2189,0.94773 1.04832,2.90483 1.5426,4.36757c2.75583,8.15553 -2.02427,16.62307 -11.11207,17.32679c-141.69971,10.97256 -283.4209,21.66917 -425.15538,32.18308c-4.22469,0.31339 -7.56786,-1.46483 -10.81281,-3.86476c-0.75281,-0.55677 -0.39064,-2.5203 -1.32594,-2.47636c-21.40789,1.00571 -42.73698,3.30331 -64.1261,4.65037c-1.7205,0.10835 -5.23054,-0.26071 -6.72744,-1.17273c-0.76668,-0.46712 -3.77219,-3.02805 -4.1615,-3.00348c-24.62861,1.55458 -49.23513,3.44498 -73.86198,5.02725c-11.25504,0.72314 -22.46447,-2.07075 -33.66004,-3.43386c-2.1237,-0.25857 -4.65713,-1.13801 -6.4086,-2.35872c-0.58788,-0.40973 -3.08513,-3.50525 -3.26103,-3.49522c-12.18611,0.69479 -25.38479,2.01972 -37.58373,2.43199c-12.19315,0.41208 -18.77111,0.49752 -22.09586,-11.80404c-0.31057,-1.14912 0.49306,-3.2199 0.66601,-4.04863c1.21082,-5.80189 4.81971,-9.73148 11.18163,-10.4689c13.40369,-1.55363 26.88721,-2.38792 40.27433,-4.07841c1.00574,-0.127 0.31203,-2.07743 0.89563,-2.90631c2.10282,-2.98661 5.10551,-5.2002 8.6137,-6.23785c12.4213,-3.67399 25.41388,-2.75405 37.82328,-5.8564c1.11549,-0.3049 2.28966,-0.46768 3.50186,-0.46768c3.26712,0 6.25807,1.18247 8.5682,3.14279c0.27808,0.10582 0.46495,0.16628 0.5315,0.16444z" fill="#000000" stroke-width="0.5"/></g></g></svg>