<svg version="1.1" xmlns="http://www.w3.org/2000/svg" xmlns:xlink="http://www.w3.org/1999/xlink" width="1088.5" height="652.75" viewBox="0,0,1088.5,652.75"><g transform="translate(124,-13.25)"><g data-paper-data="{&quot;isPaintingLayer&quot;:true}" fill="#000000" fill-rule="nonzero" stroke="none" stroke-linecap="butt" stroke-linejoin="miter" stroke-miterlimit="10" stroke-dasharray="" stroke-dashoffset="0" style="mix-blend-mode: normal"><path d="M-50.5,455v-327h565v216.7995l-1.56668,0.5355c-5.0466,0.99098 -9.94221,2.71454 -15.00095,3.62092c-1.47426,-1.05466 -3.0099,-2.00896 -4.64812,-2.79546c-2.94053,-1.41173 -6.5224,-0.15382 -9.78425,-0.16046c-4.96805,-0.01012 -8.21663,1.35231 -12.92234,2.18651c-2.34895,0.41641 -11.6365,1.5696 -13.69904,1.83282l-3.04957,6.95121c-23.10412,1.43554 -46.21115,1.11187 -69.3736,1.0411c-1.98995,-0.87201 -4.0299,-1.58753 -6.16365,-2.00946c-6.60811,-1.3067 -13.46054,0.55869 -20.19077,0.83911c-9.63893,0.40162 -19.28834,0.15424 -28.93381,0.16426l-4.34234,1.99446c-14.74662,0 -29.49325,0 -44.23987,0c-3.86333,-0.5117 -7.69085,-0.86439 -11.24425,0c-6.12661,0 -12.25323,0 -18.37984,0c-3.3758,-1.22673 -7.6115,-0.16449 -11.47983,0c-0.59256,0 -1.18512,0 -1.77768,0c-4.70616,-0.20014 -9.43143,-0.25555 -14.16248,-0.24472c-3.9677,-0.32614 -7.9574,-0.81365 -11.82039,-0.3716c-1.75975,-0.32998 -3.87548,0.08072 -6.02926,0.57057c-2.40052,0.02707 -4.79819,0.04575 -7.19128,0.04575l-0.6,1h-76.4l-0.47031,0.52256l-0.79258,-0.51911c-10.61433,0.55865 -21.21517,0.81633 -31.81748,0.93078c-0.51996,-0.41784 -1.08126,-0.72151 -1.67548,-0.93423h-6.4936c-2.21864,0.40785 -4.49248,0.9682 -6.57449,0.9987c-0.05884,0.00086 -0.11753,0.0013 -0.17607,0.0013c-3.14188,0 -18.85125,0 -21.99313,0c-0.00027,0.00018 -0.00055,0.00037 -0.00082,0.00055c-0.66861,-0.00035 -1.33729,-0.00055 -2.00605,-0.00055c-6.66667,0 -13.33333,0 -20,0c-0.10829,0 -0.21688,-0.00114 -0.32574,-0.00334c-0.86749,0.00018 -1.73498,0.00038 -2.60247,0.0006c-0.0181,-0.07445 -0.03779,-0.14808 -0.05916,-0.22083c-3.94786,-0.5117 -8.04744,-1.60889 -11.46008,-0.05508c-1.20039,-0.16662 -2.41399,-0.38094 -3.61915,-0.56458c-2.39287,0.01724 -4.78684,-0.01291 -7.18101,-0.05123c-0.76236,0.19743 -1.49805,0.49143 -2.19939,0.90977c-0.54762,0.32665 -0.86424,0.77766 -1.0193,1.31565c-2.60213,-0.19458 -5.15119,-0.41633 -7.83178,-0.659l-5.45099,3.96586l1.70039,4.37681c0.22002,1.31688 0.04988,2.88112 0.01022,4.36264c0.70674,0.52417 1.41528,1.04449 2.12951,1.55253c-0.41936,0.56263 -0.92858,1.34105 -1.36161,2.27991c0.18877,0.25841 0.42101,0.48925 0.70585,0.68675c0.00405,0.00281 0.00811,0.00561 0.01216,0.0084c-0.43537,0.30734 -0.8728,0.61068 -1.31309,0.90846c-0.12304,0.43734 -0.21988,0.89575 -0.27986,1.37168c-1.84564,-0.06144 -3.69134,-0.12162 -5.53713,-0.17996c-4.4615,-0.14102 -30.50114,-0.99105 -30.53517,-0.9744c-2.89381,1.41623 0.79898,6.39382 1.19847,9.59073l-0.98068,9.37863c17.03605,0 34.08743,0.16353 51.12692,0.06578c2.13816,0.99026 4.27689,1.97857 6.44209,2.87582c1.94313,0.06569 3.88626,0.13033 5.8294,0.19327l0.09972,1.85271c0.02687,0.00002 3.87393,0.00487 8.60149,0.00889l-1.42938,0.69064c-1.20042,0.09134 -2.40065,0.18442 -3.6007,0.27933c0.05248,0.01044 0.105,0.02077 0.15755,0.03098c0.7193,0.13979 1.44133,0.23983 2.16565,0.30695l-3.81484,1.84323c-1.34385,0.11722 -2.66211,0.3851 -3.94304,0.87257c-2.57964,0.9817 -0.44083,5.50261 -0.66125,8.25392l-4.33077,9.59004c45.27396,-3.42535 90.65832,-5.08575 135.99747,-7.58149c0.80744,-0.04445 1.61487,-0.08889 2.42231,-0.13333l2.05256,4.89327c0.1785,0.46122 0.36431,0.91373 0.56545,1.34802l1.51323,3.60751c0.54914,-0.02116 1.09829,-0.04198 1.64745,-0.06249c0.0522,0.02229 0.10509,0.04375 0.15869,0.06437c6.2223,2.39319 13.33333,0 20,0c5.33333,0 10.66667,0 16,0c15.35439,0 31.00448,0.79091 46.34032,-0.00579c20.46504,-1.06317 40.92489,-2.6154 61.38293,-3.99366c6.75892,0.00092 13.51784,0.00239 20.27676,-0.00055c5.61969,-0.00244 11.43872,1.36698 16.93778,0.52875l5.44879,2.62408c2.44774,-0.06143 4.89548,-0.12134 7.34323,-0.1795l2.10917,-1.34458c1.12637,1.10328 2.38086,1.97141 3.90562,2.34349c0.2043,0.04985 3.42712,-0.25355 7.75294,-0.68624c0.1553,0.23613 0.3226,0.47417 0.50247,0.714c6,8 14,2 14,2c2.53923,-1.9438 5.26555,-3.44598 8.00879,-4.96712c0.30297,-0.02618 0.56927,-0.04808 0.79484,-0.06522c4.1962,-0.31888 8.37879,-0.63222 12.55312,-0.95043c31.22186,-0.0122 62.4106,-0.26385 93.61869,-2.11695c5.27628,-0.3133 14.36565,-0.59803 23.02455,-1.45925v34.55898z" stroke-width="0"/><path d="" stroke-width="0"/><path d="" stroke-width="0"/><path d="" stroke-width="0"/><path d="" stroke-width="0"/><path d="" stroke-width="0"/><path d="" stroke-width="0"/><path d="M-7.65708,379.49187c1.17785,0.23911 2.48445,-0.02384 3.82374,-0.39355l-0.66666,0.90168c0.36099,0 1.42334,0.00015 2.90279,0.00026c0.827,0.37349 1.67355,0.70491 2.54421,0.98444c1.29026,0.41424 2.61057,0.63729 3.95049,0.73552c-4.19595,-0.14595 -8.392,-0.29342 -12.58836,-0.43586z" stroke-width="0"/><path d="M8.95039,381.70777c1.95543,-0.12088 3.92965,-0.36157 5.89223,-0.52849c1.50047,0.73798 3.13939,0.94166 4.84365,0.89317l-0.12159,0.14136c-3.55441,-0.11308 -7.10874,-0.23274 -10.66309,-0.35498z" stroke-width="0"/><path d="" stroke-width="0"/><path d="" stroke-width="0"/><path d="" stroke-width="0"/><path d="" stroke-width="0"/><path d="M8.20695,381.7476c-0.00597,0.02886 -0.01199,0.05775 -0.01807,0.08668c-0.4939,-0.01703 -0.9878,-0.03411 -1.4817,-0.05122c0.49808,-0.00007 0.99817,-0.01299 1.49977,-0.03545z" stroke-width="0"/><path d="M213.15944,358.85457c-0.01359,0.00019 -0.02718,0.00038 -0.04077,0.00057c-0.00464,-0.00242 0.00908,-0.0026 0.04077,-0.00057z" stroke-width="0"/><path d="M-124,173c0,-1.38071 1.11929,-2.5 2.5,-2.5c1.38071,0 2.5,1.11929 2.5,2.5c0,1.38071 -1.11929,2.5 -2.5,2.5c-1.38071,0 -2.5,-1.11929 -2.5,-2.5z" stroke-width="0.5"/><path d="M378,336.75c9.78643,-0.00179 19.57279,-0.00095 29.35914,0.00192c4.05751,-0.3444 8.11586,-0.67754 12.17737,-0.96684c0.3637,-0.02591 7.16883,-0.71536 13.2392,-1.07418c3.05677,-1.56771 6.04954,-2.89491 8.10536,-0.86162c0.24282,0.24016 0.43552,0.4937 0.58374,0.75911c1.58694,-0.262 3.22726,-0.53303 4.94232,-0.81324l3.78664,2.88315c0.97364,0.06215 1.94844,0.13142 2.92294,0.19896c13.62364,-1.29011 27.23567,-2.72082 40.9313,-3.05503c1.47331,-0.85329 2.66343,-1.22998 3.03636,-0.05561c0.80489,-0.00972 1.61009,-0.01534 2.41562,-0.01661l2.94445,2.26168c2.10643,-0.095 4.21243,-0.1978 6.31789,-0.30963l-0.26234,-6.95205c4.91032,0 9.19708,-0.68786 14.17668,-0.9744c0.56575,-0.03255 16.25979,-0.0256 17.82332,-0.0256c2.74358,0 18.31686,-0.27219 20.07056,1.0086c15.26195,11.14637 13.68956,16.76621 2.89538,28.51253c-1.48485,1.61583 -4.03033,1.76026 -6.1263,2.41035c-5.92537,1.83782 -12.01233,3.34907 -18.18657,3.95433c-1.39866,0.13711 -2.79722,0.27064 -4.19569,0.40068l-13.00803,8.20208c-10.77764,-0.89014 -21.59002,-1.52292 -32.41118,-1.98855c-0.34605,0 -0.69211,0 -1.03816,0c-17.84842,0 -35.69685,0 -53.54527,0c-2.67555,0.83507 -5.33037,1.73923 -7.91158,0.98886c-0.65659,-0.19087 -1.30639,-0.39883 -1.95014,-0.62206c-23.61537,3.5062 -47.42853,3.6365 -71.26061,3.43281c-11.83203,0.82628 -23.67179,1.42035 -35.5242,2.17571c-18.75891,1.19553 -31.52666,2.01777 -49.80819,2.02467l-9.36569,-5.99991c-1.79984,-0.00004 -3.09492,-0.00009 -3.63431,-0.00009c-5.33333,0 -11.33096,2.5777 -16,0c-0.04848,-0.02677 -0.09654,-0.05398 -0.14418,-0.08162c-0.50247,0.02493 -1.00497,0.0506 -1.5075,0.07705l-0.84057,-1.7538c-3.74095,0.18204 -7.51652,0.24675 -11.30598,0.24462c-16.1999,0.91701 -32.45387,0.89507 -48.71369,1.10918c-1.1291,0.84851 -2.28753,1.65599 -3.48808,2.40458c-1.39996,0.87291 -3.29455,0.01766 -4.94934,0.00027c-14.35022,0.00147 -28.70046,0.00814 -43.05066,-0.00027c-4.15847,-0.00244 -8.32137,0.14487 -12.47986,0.13999c-0.25797,0.15083 -0.51704,0.29987 -0.77728,0.44702l0.25715,0.41299c-0.33303,0 -0.66609,-0.00015 -0.99918,-0.00045c-0.00027,0.00015 -0.00055,0.0003 -0.00082,0.00045c-1.46258,0.79914 -3.33334,0.00257 -5,0c-0.52578,-0.00081 -1.05129,-0.00895 -1.57659,-0.02321c-15.89231,-0.09088 -31.82624,-0.40671 -47.71489,-0.18217c-5.49103,0.86688 -11.01206,1.42697 -16.54951,1.76577c-1.9671,0.48446 -3.86907,0.77285 -5.53519,0.26794c-3.20485,0.1161 -6.41366,0.16783 -9.62382,0.17167l-6.02207,-3.98801c-0.65941,-0.00747 -1.31874,-0.01199 -1.97793,-0.01199l-1.16731,-0.80785c-0.71007,0.01437 -1.42074,0.01832 -2.13183,0.01496c-5.58669,1.53875 -11.10009,3.29968 -16.51084,5.11295c0,0 -9.91708,3.30569 -15.07023,-4.76393c-2.20544,0.12099 -4.40942,0.26474 -6.6113,0.43411l-24.73821,-12.50751c0.20095,-0.14929 0.40137,-0.29941 0.60131,-0.45028c-0.76827,-0.54054 -1.52962,-1.09412 -2.28766,-1.65388c-3.07278,-1.46164 -6.14056,-2.9378 -9.26268,-4.25637l1.67463,-1.28312c-0.24319,-0.16458 -0.48724,-0.32754 -0.73226,-0.48866l5.04565,-3.21015c-0.31543,-0.3425 -0.6351,-0.67933 -0.95999,-1.0092l15.18164,-9.72847c0.35039,-1.03648 1.18588,-1.42249 2.28035,-1.46126l0.68873,-0.44134c0.42547,0 0.8509,0.00011 1.27631,0.00031c0.80894,-0.54222 2.23199,-0.35104 3.80459,0.00396c3.99472,0.00603 7.98727,0.01668 11.9784,0.02028c4.22213,-0.30667 8.43739,-0.64214 12.6493,-0.99988c1.91918,-0.38164 3.84559,-0.71443 5.78787,-0.93909c0.78785,-0.09113 5.13976,-0.3083 10.78259,-0.56943c0.37566,-0.03614 0.75133,-0.07239 1.12702,-0.10875c0.46392,-0.35028 1.03461,-0.64303 1.32279,-1.12334c0.54233,-0.90388 0.29685,-2.2147 1,-3c2.43762,-2.72241 4.86101,-5.79193 8.20057,-7.27547c3.18571,-1.41519 6.94132,-0.65139 10.41052,-0.99215c3.21203,-0.31549 6.41372,-0.74772 9.63308,-0.97659c20.06182,-1.42622 40.47525,-1.70885 60.5776,-1.02841c9.69014,0.328 14.92537,1.06166 23.98622,3.46933c1.57442,0.41836 5.34531,0.24928 4.58554,1.69031c-0.4015,0.76152 -0.85755,1.48399 -1.3564,2.1758l0.82673,0.58215c8.67861,-1.61025 21.35947,-1.81773 26.05893,-1.92446c22.742,-0.51651 45.60042,-0.00458 68.34832,-0.00458l16.15073,11.63107c-0.10057,0.10976 -0.20085,0.21982 -0.30087,0.33014c1.0501,0.01411 2.10058,0.04057 3.15015,0.03878c1,-0.0017 3.48001,-0.87726 3,0l3.63368,2.96285c0.06853,0.00115 0.13654,0.00374 0.20402,0.00783c3.62123,-1.33948 7.49873,-1.60695 11.42138,-1.67537l1.74091,-3.2953c1.64795,0 3.29809,0.0093 4.94977,0.02392c0.01672,-0.00801 0.03346,-0.01598 0.05023,-0.02392c4.82081,-2.28128 10.66667,0 16,0c4.5768,0 9.15352,-0.00086 13.73021,-0.0003c5.33317,-0.29342 12.91836,-5.39961 15.85633,-0.99325c0.21527,0.32286 0.36807,0.64741 0.46549,0.97344l0.04707,0.03174c3.60328,0.00566 7.20656,0.01389 10.80986,0.0258c3.13367,-0.41832 6.45374,-2.20528 9.3583,-1.01716c1.66482,0.681 3.22817,1.54722 4.72975,2.52624c12.6606,-0.90883 21.68161,-0.54344 38.50298,-0.54651z" stroke-width="0.5"/><path d="M-114.5,666v-531h1079v531z" stroke-width="0"/><text transform="translate(-75.5,35) scale(0.5,0.5)" font-size="40" xml:space="preserve" fill="#000000" fill-rule="nonzero" stroke="none" stroke-width="1" stroke-linecap="butt" stroke-linejoin="miter" stroke-miterlimit="10" stroke-dasharray="" stroke-dashoffset="0" font-family="Sans Serif" font-weight="normal" text-anchor="start" style="mix-blend-mode: normal"><tspan x="0" dy="0">L</tspan></text></g></g></svg>