<svg version="1.1" xmlns="http://www.w3.org/2000/svg" xmlns:xlink="http://www.w3.org/1999/xlink" width="63" height="44.54773" viewBox="0,0,63,44.54773"><g transform="translate(-205.03518,-329.88672)"><g data-paper-data="{&quot;isPaintingLayer&quot;:true}" fill-rule="nonzero" stroke="none" stroke-width="0" stroke-linecap="butt" stroke-linejoin="miter" stroke-miterlimit="10" stroke-dasharray="" stroke-dashoffset="0" style="mix-blend-mode: normal"><path d="M205.03519,361.38672c0,-17.39697 14.10303,-31.5 31.5,-31.5c17.39697,0 31.5,14.10303 31.5,31.5c0,17.39697 -63,17.39697 -63,0z" fill="#343434"/><g data-paper-data="{&quot;origPos&quot;:null}" fill="#00ab7a"><g data-paper-data="{&quot;origPos&quot;:null}"><g data-paper-data="{&quot;origPos&quot;:null}"><path d="M219.59854,341.093v-4.12132h4.12132v4.12132z" data-paper-data="{&quot;origPos&quot;:null}"/><path d="M225.23824,341.093v-4.12132h4.12132v4.12132z" data-paper-data="{&quot;origPos&quot;:null}"/></g><g data-paper-data="{&quot;origPos&quot;:null}"><path d="M231.09486,341.093v-4.12132h4.12132v4.12132z" data-paper-data="{&quot;origPos&quot;:null}"/><path d="M236.73457,341.093v-4.12132h4.12132v4.12132z" data-paper-data="{&quot;origPos&quot;:null}"/></g><g data-paper-data="{&quot;origPos&quot;:null}"><path d="M242.59118,341.093v-4.12132h4.12132v4.12132z" data-paper-data="{&quot;origPos&quot;:null}"/><path d="M248.23089,341.093v-4.12132h4.12132v4.12132z" data-paper-data="{&quot;origPos&quot;:null}"/></g></g><g data-paper-data="{&quot;origPos&quot;:null}"><g data-paper-data="{&quot;origPos&quot;:null}"><g data-paper-data="{&quot;origPos&quot;:null}"><path d="M236.95148,346.5158v-4.12132h4.12132v4.12132z" data-paper-data="{&quot;origPos&quot;:null}"/><path d="M242.59118,346.5158v-4.12132h4.12132v4.12132z" data-paper-data="{&quot;origPos&quot;:null}"/></g><g data-paper-data="{&quot;origPos&quot;:null}"><path d="M248.4478,346.5158v-4.12132h4.12132v4.12132z" data-paper-data="{&quot;origPos&quot;:null}"/><path d="M254.08751,346.5158v-4.12132h4.12132v4.12132z" data-paper-data="{&quot;origPos&quot;:null}"/></g></g><g data-paper-data="{&quot;origPos&quot;:null}"><path d="M214.17574,346.5158v-4.12132h4.12132v4.12132z" data-paper-data="{&quot;origPos&quot;:null}"/><path d="M219.81545,346.5158v-4.12132h4.12132v4.12132z" data-paper-data="{&quot;origPos&quot;:null}"/></g><g data-paper-data="{&quot;origPos&quot;:null}"><path d="M225.67207,346.5158v-4.12132h4.12132v4.12132z" data-paper-data="{&quot;origPos&quot;:null}"/><path d="M231.31177,346.5158v-4.12132h4.12132v4.12132z" data-paper-data="{&quot;origPos&quot;:null}"/></g></g><g data-paper-data="{&quot;origPos&quot;:null}"><g data-paper-data="{&quot;origPos&quot;:null}"><g data-paper-data="{&quot;origPos&quot;:null}"><path d="M236.73457,351.93859v-4.12132h4.12132v4.12132z" data-paper-data="{&quot;origPos&quot;:null}"/><path d="M242.37427,351.93859v-4.12132h4.12132v4.12132z" data-paper-data="{&quot;origPos&quot;:null}"/></g><g data-paper-data="{&quot;origPos&quot;:null}"><path d="M248.23089,351.93859v-4.12132h4.12132v4.12132z" data-paper-data="{&quot;origPos&quot;:null}"/><path d="M253.87059,351.93859v-4.12132h4.12132v4.12132z" data-paper-data="{&quot;origPos&quot;:null}"/></g></g><g data-paper-data="{&quot;origPos&quot;:null}"><path d="M213.95883,351.93859v-4.12132h4.12132v4.12132z" data-paper-data="{&quot;origPos&quot;:null}"/><path d="M219.59854,351.93859v-4.12132h4.12132v4.12132z" data-paper-data="{&quot;origPos&quot;:null}"/></g><g data-paper-data="{&quot;origPos&quot;:null}"><path d="M225.45515,351.93859v-4.12132h4.12132v4.12132z" data-paper-data="{&quot;origPos&quot;:null}"/><path d="M231.09486,351.93859v-4.12132h4.12132v4.12132z" data-paper-data="{&quot;origPos&quot;:null}"/></g></g></g></g></g></svg>